<?xml version="1.0" encoding="UTF-8" standalone="no"?>
<svg
   xmlns:dc="http://purl.org/dc/elements/1.1/"
   xmlns:cc="http://creativecommons.org/ns#"
   xmlns:rdf="http://www.w3.org/1999/02/22-rdf-syntax-ns#"
   xmlns:svg="http://www.w3.org/2000/svg"
   xmlns="http://www.w3.org/2000/svg"
   xmlns:sodipodi="http://sodipodi.sourceforge.net/DTD/sodipodi-0.dtd"
   xmlns:inkscape="http://www.inkscape.org/namespaces/inkscape"
   width="500"
   height="500"
   version="1.1"
   viewBox="0 0 500.00001 500.00001"
   id="svg8"
   sodipodi:docname="hexagon-2307352.svg"
   inkscape:version="0.92.1 r15371">
  <metadata
     id="metadata14">
    <rdf:RDF>
      <cc:Work
         rdf:about="">
        <dc:format>image/svg+xml</dc:format>
        <dc:type
           rdf:resource="http://purl.org/dc/dcmitype/StillImage" />
      </cc:Work>
    </rdf:RDF>
  </metadata>
  <defs
     id="defs12" />
  <sodipodi:namedview
     pagecolor="#ffffff"
     bordercolor="#666666"
     borderopacity="1"
     objecttolerance="10"
     gridtolerance="10"
     guidetolerance="10"
     inkscape:pageopacity="0"
     inkscape:pageshadow="2"
     inkscape:window-width="1920"
     inkscape:window-height="1028"
     id="namedview10"
     showgrid="false"
     inkscape:zoom="1.3350176"
     inkscape:cx="174.72279"
     inkscape:cy="283.76314"
     inkscape:window-x="-8"
     inkscape:window-y="-8"
     inkscape:window-maximized="1"
     inkscape:current-layer="g6" />
  <g
     transform="translate(0 -552.36)"
     id="g6">
    <path
       d="m 250,571.78 199.69,115.29 -10e-6,230.58 -2.50736,1.44761 -197.18264,113.84239 -199.69,-115.29 7e-6,-230.58 z"
       id="path2"
       inkscape:connector-curvature="0"
       style="fill:none;stroke:#555555;stroke-width:18.44599915;stroke-linecap:round"
       sodipodi:nodetypes="cccccccc" />
    <path
       d="m307.32 671.77a38.452 38.452 0 0 0 -38.452 38.453 38.452 38.452 0 0 0 1.8878 11.747l-88.49 51.09a38.452 38.452 0 0 0 -28.458 -12.659 38.452 38.452 0 0 0 -38.452 38.452 38.452 38.452 0 0 0 38.452 38.452 38.452 38.452 0 0 0 22.041 -7.0002l90.828 52.439a38.452 38.452 0 0 0 -1.8625 11.761 38.452 38.452 0 0 0 38.452 38.452 38.452 38.452 0 0 0 38.452 -38.452 38.452 38.452 0 0 0 -38.452 -38.453 38.452 38.452 0 0 0 -28.458 12.66l-87.73-50.651a38.452 38.452 0 0 0 5.182 -19.208 38.452 38.452 0 0 0 -1.8862 -11.747l88.489-51.09a38.452 38.452 0 0 0 28.458 12.659 38.452 38.452 0 0 0 38.452 -38.452 38.452 38.452 0 0 0 -38.452 -38.453z"
       fill="#555"
       id="path4"
       style="fill:#ffb380" />
  </g>
</svg>
